# xmcd
#
# Track frame offsets:
#	150
#	18870
#	48955
#	74642
#
# Disc length: 1184 seconds
#
# Revision: 0
# Processed by: cddbd v1.4PL0 Copyright (c) Steve Scherf et al.
# Submitted via: dBpowerAMP V4.0
#
DISCID=2e049e04
DTITLE=Gov't Mule - The Deep End Volume 2 [CD2]
DYEAR=2002
DGENRE=Blues
TTITLE0=Drivin' Rain
TTITLE1=Rocking Horse
TTITLE2=Lay Your Burden Down
TTITLE3=Sco-Mule (DJ Logic Remix)
EXTD=
EXTT0=
EXTT1=
EXTT2=
EXTT3=
PLAYORDER=
